<svg width="48" height="63" viewBox="0 0 48 63" fill="none" xmlns="http://www.w3.org/2000/svg">
<path opacity="0.07" d="M6.34615 6.43255C9.85141 6.43255 12.6928 9.22331 12.6928 12.6659L12.6928 33.9437C9.85522 31.7938 6.23832 30.5259 2.10784 29.8499L1.06445 35.9985C5.44562 36.7156 8.24199 38.0754 9.96438 39.908C11.6456 41.6967 12.6928 44.353 12.6928 48.5076C12.6928 52.8107 9.14093 56.2992 4.75948 56.2992C0.378027 56.2992 -3.17385 52.8107 -3.17385 48.5076L-3.17385 47.4145C-1.8091 47.8612 -0.392934 48.2267 1.06445 48.4652L2.10784 42.3166C-0.249658 41.9308 -2.61788 41.0724 -4.98554 39.9676C-7.675 38.7128 -9.52052 36.0378 -9.52052 32.9242C-9.52052 30.3227 -8.8617 28.2757 -7.74745 26.771C-6.65053 25.2896 -4.94489 24.105 -2.40419 23.4812L-0.000518799 22.891L-0.000518799 12.6659C-0.000518799 9.22331 2.84098 6.43255 6.34615 6.43255ZM15.8661 4.41975C13.5404 1.8316 10.1373 0.199219 6.34615 0.199219C-0.66419 0.199219 -6.34719 5.78073 -6.34719 12.6659L-6.34719 18.1955C-9.04785 19.2621 -11.2613 20.9184 -12.8803 23.1046C-14.9393 25.8852 -15.8672 29.2924 -15.8672 32.9242C-15.8672 37.8024 -13.3423 42.0769 -9.52052 44.5874V48.5076C-9.52052 56.2534 -3.12714 62.5326 4.75948 62.5326C9.2454 62.5326 13.2481 60.5011 15.8661 57.3237C18.4841 60.5011 22.487 62.5326 26.9728 62.5326C34.8595 62.5326 41.2528 56.2534 41.2528 48.5076V44.5874C45.0748 42.0769 47.5995 37.8024 47.5995 32.9242C47.5995 29.2924 46.6716 25.8852 44.6124 23.1046C42.9937 20.9184 40.7803 19.2621 38.0795 18.1955V12.6659C38.0795 5.78073 32.3964 0.199219 25.3862 0.199219C21.595 0.199219 18.1919 1.8316 15.8661 4.41975ZM34.9062 47.4145V48.5076C34.9062 52.8107 31.3542 56.2992 26.9728 56.2992C22.5914 56.2992 19.0395 52.8107 19.0395 48.5076C19.0395 44.353 20.0867 41.6967 21.7679 39.908C23.4904 38.0754 26.2867 36.7156 30.6678 35.9985L29.6245 29.8499C25.494 30.5259 21.8771 31.7938 19.0395 33.9437V12.6659C19.0395 9.22331 21.8809 6.43255 25.3862 6.43255C28.8914 6.43255 31.7328 9.22331 31.7328 12.6659V22.891L34.1366 23.4812C36.6772 24.105 38.3829 25.2896 39.4799 26.771C40.594 28.2757 41.2528 30.3227 41.2528 32.9242C41.2528 36.0378 39.4072 38.7128 36.7178 39.9676C34.3502 41.0724 31.9819 41.9308 29.6245 42.3166L30.6678 48.4652C32.1254 48.2267 33.5413 47.8612 34.9062 47.4145Z" fill="white"/>
</svg>
