<svg width="48" height="48" viewBox="0 0 48 48" fill="none" xmlns="http://www.w3.org/2000/svg">
<path fill-rule="evenodd" clip-rule="evenodd" d="M35.976 22.6687C35.9469 15.9865 35.7 11.0094 35.4635 7.72812C35.3485 6.02491 34.6284 4.41893 33.4332 3.20005C32.238 1.98117 30.6465 1.22969 28.9458 1.08125C26.1333 0.820833 22.324 0.5625 18.2708 0.5625C14.2396 0.5625 10.4479 0.817708 7.64062 1.07708C5.92901 1.22946 4.32814 1.98829 3.12661 3.21675C1.92507 4.44522 1.20191 6.06252 1.0875 7.77708C0.833333 11.3396 0.5625 16.8167 0.5625 24C0.5625 33.6365 0.80625 40.7219 0.945833 43.976C0.986167 44.9091 1.38576 45.7904 2.06101 46.4355C2.73626 47.0807 3.63484 47.4397 4.56875 47.4375H42.5344C43.7355 47.4409 44.8912 46.9787 45.7587 46.1479C46.6262 45.3171 47.138 44.1824 47.1865 42.9823C47.2979 40.1698 47.4375 35.6562 47.4375 30.7708C47.4375 27.0146 47.2729 23.6323 47.0958 21.0771C46.8458 17.4771 44.0417 14.6208 40.4188 14.3687C39.9507 14.3368 39.4562 14.3056 38.9354 14.275C39.0354 17.0177 39.1042 20.2583 39.1042 24C39.1042 31.3021 38.974 36.9708 38.849 40.7187C38.8353 41.1264 38.6626 41.5126 38.368 41.7947C38.0734 42.0769 37.6801 42.2326 37.2722 42.2287C36.8643 42.2247 36.4741 42.0614 36.185 41.7736C35.8959 41.4859 35.7308 41.0964 35.725 40.6885C35.903 35.1275 35.9877 29.5639 35.9792 24C35.9792 23.5486 35.9781 23.1049 35.976 22.6687ZM12.5417 9.41667C13.0942 9.41667 13.6241 9.63616 14.0148 10.0269C14.4055 10.4176 14.625 10.9475 14.625 11.5V13.5833C14.625 14.1359 14.4055 14.6658 14.0148 15.0565C13.6241 15.4472 13.0942 15.6667 12.5417 15.6667C11.9891 15.6667 11.4592 15.4472 11.0685 15.0565C10.6778 14.6658 10.4583 14.1359 10.4583 13.5833V11.5C10.4583 10.9475 10.6778 10.4176 11.0685 10.0269C11.4592 9.63616 11.9891 9.41667 12.5417 9.41667ZM14.625 22.9583C14.625 22.4058 14.4055 21.8759 14.0148 21.4852C13.6241 21.0945 13.0942 20.875 12.5417 20.875C11.9891 20.875 11.4592 21.0945 11.0685 21.4852C10.6778 21.8759 10.4583 22.4058 10.4583 22.9583V25.0417C10.4583 25.5942 10.6778 26.1241 11.0685 26.5148C11.4592 26.9055 11.9891 27.125 12.5417 27.125C13.0942 27.125 13.6241 26.9055 14.0148 26.5148C14.4055 26.1241 14.625 25.5942 14.625 25.0417V22.9583ZM24 9.41667C24.5525 9.41667 25.0824 9.63616 25.4731 10.0269C25.8638 10.4176 26.0833 10.9475 26.0833 11.5V13.5833C26.0833 14.1359 25.8638 14.6658 25.4731 15.0565C25.0824 15.4472 24.5525 15.6667 24 15.6667C23.4475 15.6667 22.9176 15.4472 22.5269 15.0565C22.1362 14.6658 21.9167 14.1359 21.9167 13.5833V11.5C21.9167 10.9475 22.1362 10.4176 22.5269 10.0269C22.9176 9.63616 23.4475 9.41667 24 9.41667ZM26.0833 22.9583C26.0833 22.4058 25.8638 21.8759 25.4731 21.4852C25.0824 21.0945 24.5525 20.875 24 20.875C23.4475 20.875 22.9176 21.0945 22.5269 21.4852C22.1362 21.8759 21.9167 22.4058 21.9167 22.9583V25.0417C21.9167 25.5942 22.1362 26.1241 22.5269 26.5148C22.9176 26.9055 23.4475 27.125 24 27.125C24.5525 27.125 25.0824 26.9055 25.4731 26.5148C25.8638 26.1241 26.0833 25.5942 26.0833 25.0417V22.9583ZM18.7917 31.8125C17.6698 31.8125 16.7708 31.8802 16.0573 31.9792C14.1969 32.2354 13.2125 33.8281 13.1448 35.5469C13.0846 37.2528 13.0572 38.9597 13.0625 40.6667C13.0625 41.8885 13.0729 42.925 13.0885 43.8021C13.0913 43.9384 13.1473 44.0682 13.2447 44.1637C13.3421 44.2591 13.473 44.3125 13.6094 44.3125H23.974C24.1103 44.3125 24.2412 44.2591 24.3386 44.1637C24.436 44.0682 24.4921 43.9384 24.4948 43.8021C24.5104 42.925 24.5208 41.8885 24.5208 40.6667C24.5208 38.351 24.4844 36.7021 24.4385 35.5469C24.3708 33.8281 23.3865 32.2354 21.526 31.9792C20.6195 31.8605 19.7059 31.8048 18.7917 31.8125Z" fill="#009BD6"/>
</svg>
