<svg width="34" height="44" viewBox="0 0 34 44" fill="none" xmlns="http://www.w3.org/2000/svg">
<path d="M0.927734 7.27065C0.927734 5.49464 1.63325 3.79138 2.88907 2.53556C4.1449 1.27973 5.84816 0.574219 7.62416 0.574219H26.3742C28.1502 0.574219 29.8534 1.27973 31.1093 2.53556C32.3651 3.79138 33.0706 5.49464 33.0706 7.27065V34.5028C33.0706 35.2132 32.7884 35.8945 32.2861 36.3968C31.7837 36.8992 31.1024 37.1814 30.392 37.1814H3.63131C3.74111 38.1635 4.20906 39.0708 4.94567 39.7296C5.68228 40.3885 6.63588 40.7528 7.62416 40.7528H31.7313C32.0865 40.7528 32.4272 40.8939 32.6783 41.1451C32.9295 41.3962 33.0706 41.7369 33.0706 42.0921C33.0706 42.4473 32.9295 42.7879 32.6783 43.0391C32.4272 43.2903 32.0865 43.4314 31.7313 43.4314H7.62416C5.84816 43.4314 4.1449 42.7258 2.88907 41.47C1.63325 40.2142 0.927734 38.5109 0.927734 36.7349V7.27065ZM21.4634 13.9671C21.4634 12.7831 20.9931 11.6476 20.1559 10.8103C19.3187 9.97313 18.1832 9.50279 16.9992 9.50279C15.8152 9.50279 14.6797 9.97313 13.8424 10.8103C13.0052 11.6476 12.5349 12.7831 12.5349 13.9671C12.5349 15.1511 13.0052 16.2866 13.8424 17.1238C14.6797 17.961 15.8152 18.4314 16.9992 18.4314C18.1832 18.4314 19.3187 17.961 20.1559 17.1238C20.9931 16.2866 21.4634 15.1511 21.4634 13.9671ZM25.0349 23.5653V23.3814C25.0349 21.6331 23.617 20.2171 21.8688 20.2171H12.1295C10.3795 20.2171 8.96345 21.6331 8.96345 23.3814V23.5653C8.96345 26.3546 11.2599 29.1456 16.9992 29.1456C22.7384 29.1456 25.0349 26.3439 25.0349 23.5653Z" fill="#009BD6"/>
</svg>
