<svg width="12" height="12" viewBox="0 0 12 12" fill="none" xmlns="http://www.w3.org/2000/svg">
<path d="M6.3143 7.20385L2.10202 11.4161C1.94442 11.5737 1.74383 11.6525 1.50027 11.6525C1.2567 11.6525 1.05611 11.5737 0.898513 11.4161C0.74091 11.2585 0.662109 11.0579 0.662109 10.8144C0.662109 10.5708 0.74091 10.3702 0.898513 10.2126L5.11079 6.00034L0.898513 1.78806C0.74091 1.63045 0.662109 1.42987 0.662109 1.1863C0.662109 0.942735 0.74091 0.74215 0.898513 0.584548C1.05611 0.426945 1.2567 0.348145 1.50027 0.348145C1.74383 0.348145 1.94442 0.426945 2.10202 0.584548L6.3143 4.79683L10.5266 0.584548C10.6842 0.426945 10.8848 0.348145 11.1283 0.348145C11.3719 0.348145 11.5725 0.426945 11.7301 0.584548C11.8877 0.74215 11.9665 0.942735 11.9665 1.1863C11.9665 1.42987 11.8877 1.63045 11.7301 1.78806L7.51781 6.00034L11.7301 10.2126C11.8877 10.3702 11.9665 10.5708 11.9665 10.8144C11.9665 11.0579 11.8877 11.2585 11.7301 11.4161C11.5725 11.5737 11.3719 11.6525 11.1283 11.6525C10.8848 11.6525 10.6842 11.5737 10.5266 11.4161L6.3143 7.20385Z" fill="#959595"/>
</svg>
