<svg width="1337" height="381" viewBox="0 0 1337 381" fill="none" xmlns="http://www.w3.org/2000/svg">
<g opacity="0.24">
<circle cx="3.70566" cy="3.9791" r="2.90488" fill="#C3EAF8"/>
<circle cx="3.87363" cy="52.0221" r="2.90488" fill="#7CB9D0"/>
<circle cx="3.87363" cy="100.866" r="2.90488" fill="#C3EAF8"/>
<circle cx="3.87363" cy="149.71" r="2.90488" fill="#7CB9D0"/>
<circle cx="3.87363" cy="198.553" r="2.90488" fill="#7CB9D0"/>
<circle cx="3.87363" cy="247.397" r="2.90488" fill="#7CB9D0"/>
<circle cx="3.87363" cy="296.233" r="2.90488" fill="#7CB9D0"/>
<circle cx="3.87363" cy="345.077" r="2.90488" fill="#C3EAF8"/>
<circle cx="80.5455" cy="2.87757" r="2.67835" fill="#C3EAF8"/>
<circle cx="80.6998" cy="51.8033" r="2.67835" fill="#7CB9D0"/>
<circle cx="80.6998" cy="100.651" r="2.67835" fill="#C3EAF8"/>
<circle cx="80.6998" cy="149.495" r="2.67835" fill="#7CB9D0"/>
<circle cx="80.6998" cy="198.335" r="2.67835" fill="#7CB9D0"/>
<circle cx="80.6998" cy="247.178" r="2.67835" fill="#7CB9D0"/>
<circle cx="80.7" cy="296.022" r="2.67835" fill="#7CB9D0"/>
<circle cx="80.6998" cy="344.866" r="2.67835" fill="#C3EAF8"/>
<circle cx="157.612" cy="2.87757" r="2.67835" fill="#C3EAF8"/>
<circle cx="157.766" cy="51.8033" r="2.67835" fill="#7CB9D0"/>
<circle cx="157.766" cy="100.651" r="2.67835" fill="#C3EAF8"/>
<circle cx="157.766" cy="149.495" r="2.67835" fill="#7CB9D0"/>
<circle cx="157.766" cy="198.335" r="2.67835" fill="#7CB9D0"/>
<circle cx="157.766" cy="247.178" r="2.67835" fill="#7CB9D0"/>
<circle cx="157.766" cy="296.022" r="2.67835" fill="#7CB9D0"/>
<circle cx="157.766" cy="344.866" r="2.67835" fill="#C3EAF8"/>
<circle cx="234.678" cy="2.87757" r="2.67835" fill="#C3EAF8"/>
<circle cx="234.831" cy="51.8033" r="2.67835" fill="#7CB9D0"/>
<circle cx="234.831" cy="100.651" r="2.67835" fill="#C3EAF8"/>
<circle cx="234.831" cy="149.495" r="2.67835" fill="#7CB9D0"/>
<circle cx="234.831" cy="198.335" r="2.67835" fill="#7CB9D0"/>
<circle cx="234.831" cy="247.178" r="2.67835" fill="#7CB9D0"/>
<circle cx="234.831" cy="296.022" r="2.67835" fill="#7CB9D0"/>
<circle cx="234.831" cy="344.866" r="2.67835" fill="#C3EAF8"/>
<circle cx="311.747" cy="2.87757" r="2.67835" fill="#C3EAF8"/>
<circle cx="311.899" cy="51.8033" r="2.67835" fill="#7CB9D0"/>
<circle cx="311.899" cy="100.651" r="2.67835" fill="#C3EAF8"/>
<circle cx="311.899" cy="149.495" r="2.67835" fill="#7CB9D0"/>
<circle cx="311.899" cy="198.335" r="2.67835" fill="#7CB9D0"/>
<circle cx="311.899" cy="247.178" r="2.67835" fill="#7CB9D0"/>
<circle cx="311.899" cy="296.022" r="2.67835" fill="#7CB9D0"/>
<circle cx="311.899" cy="344.866" r="2.67835" fill="#C3EAF8"/>
<circle cx="388.813" cy="2.87757" r="2.67835" fill="#C3EAF8"/>
<circle cx="388.967" cy="51.8033" r="2.67835" fill="#7CB9D0"/>
<circle cx="388.967" cy="100.651" r="2.67835" fill="#C3EAF8"/>
<circle cx="388.967" cy="149.495" r="2.67835" fill="#7CB9D0"/>
<circle cx="388.967" cy="198.335" r="2.67835" fill="#7CB9D0"/>
<circle cx="388.967" cy="247.178" r="2.67835" fill="#7CB9D0"/>
<circle cx="388.967" cy="296.022" r="2.67835" fill="#7CB9D0"/>
<circle cx="388.967" cy="344.866" r="2.67835" fill="#C3EAF8"/>
<circle cx="465.88" cy="2.87757" r="2.67835" fill="#C3EAF8"/>
<circle cx="466.034" cy="51.8033" r="2.67835" fill="#7CB9D0"/>
<circle cx="466.034" cy="100.651" r="2.67835" fill="#C3EAF8"/>
<circle cx="466.034" cy="149.495" r="2.67835" fill="#7CB9D0"/>
<circle cx="466.034" cy="198.335" r="2.67835" fill="#7CB9D0"/>
<circle cx="466.034" cy="247.178" r="2.67835" fill="#7CB9D0"/>
<circle cx="466.034" cy="296.022" r="2.67835" fill="#7CB9D0"/>
<circle cx="466.034" cy="344.866" r="2.67835" fill="#C3EAF8"/>
<circle cx="542.946" cy="2.87757" r="2.67835" fill="#C3EAF8"/>
<circle cx="543.1" cy="51.8033" r="2.67835" fill="#7CB9D0"/>
<circle cx="543.1" cy="100.651" r="2.67835" fill="#C3EAF8"/>
<circle cx="543.1" cy="149.495" r="2.67835" fill="#7CB9D0"/>
<circle cx="543.1" cy="198.335" r="2.67835" fill="#7CB9D0"/>
<circle cx="543.1" cy="247.178" r="2.67835" fill="#7CB9D0"/>
<circle cx="543.1" cy="296.022" r="2.67835" fill="#7CB9D0"/>
<circle cx="543.1" cy="344.866" r="2.67835" fill="#C3EAF8"/>
<circle cx="620.012" cy="2.87757" r="2.67835" fill="#C3EAF8"/>
<circle cx="620.167" cy="51.8033" r="2.67835" fill="#7CB9D0"/>
<circle cx="620.167" cy="100.651" r="2.67835" fill="#C3EAF8"/>
<circle cx="620.167" cy="149.495" r="2.67835" fill="#7CB9D0"/>
<circle cx="620.167" cy="198.335" r="2.67835" fill="#7CB9D0"/>
<circle cx="620.167" cy="247.178" r="2.67835" fill="#7CB9D0"/>
<circle cx="620.166" cy="296.022" r="2.67835" fill="#7CB9D0"/>
<circle cx="620.167" cy="344.866" r="2.67835" fill="#C3EAF8"/>
<circle cx="697.081" cy="2.87757" r="2.67835" fill="#C3EAF8"/>
<circle cx="697.233" cy="51.8033" r="2.67835" fill="#7CB9D0"/>
<circle cx="697.233" cy="100.651" r="2.67835" fill="#C3EAF8"/>
<circle cx="697.233" cy="149.495" r="2.67835" fill="#7CB9D0"/>
<circle cx="697.233" cy="198.335" r="2.67835" fill="#7CB9D0"/>
<circle cx="697.233" cy="247.178" r="2.67835" fill="#7CB9D0"/>
<circle cx="697.233" cy="296.022" r="2.67835" fill="#7CB9D0"/>
<circle cx="697.233" cy="344.866" r="2.67835" fill="#C3EAF8"/>
<circle cx="774.147" cy="2.87757" r="2.67835" fill="#C3EAF8"/>
<circle cx="774.299" cy="51.8033" r="2.67835" fill="#7CB9D0"/>
<circle cx="774.299" cy="100.651" r="2.67835" fill="#C3EAF8"/>
<circle cx="774.299" cy="149.495" r="2.67835" fill="#7CB9D0"/>
<circle cx="774.299" cy="198.335" r="2.67835" fill="#7CB9D0"/>
<circle cx="774.299" cy="247.178" r="2.67835" fill="#7CB9D0"/>
<circle cx="774.299" cy="296.022" r="2.67835" fill="#7CB9D0"/>
<circle cx="774.299" cy="344.866" r="2.67835" fill="#C3EAF8"/>
<circle cx="851.214" cy="2.87757" r="2.67835" fill="#C3EAF8"/>
<circle cx="851.368" cy="51.8033" r="2.67835" fill="#7CB9D0"/>
<circle cx="851.368" cy="100.651" r="2.67835" fill="#C3EAF8"/>
<circle cx="851.368" cy="149.495" r="2.67835" fill="#7CB9D0"/>
<circle cx="851.368" cy="198.335" r="2.67835" fill="#7CB9D0"/>
<circle cx="851.368" cy="247.178" r="2.67835" fill="#7CB9D0"/>
<circle cx="851.368" cy="296.022" r="2.67835" fill="#7CB9D0"/>
<circle cx="851.368" cy="344.866" r="2.67835" fill="#C3EAF8"/>
<circle cx="928.28" cy="2.87757" r="2.67835" fill="#C3EAF8"/>
<circle cx="928.434" cy="51.8033" r="2.67835" fill="#7CB9D0"/>
<circle cx="928.434" cy="100.651" r="2.67835" fill="#C3EAF8"/>
<circle cx="928.434" cy="149.495" r="2.67835" fill="#7CB9D0"/>
<circle cx="928.434" cy="198.335" r="2.67835" fill="#7CB9D0"/>
<circle cx="928.434" cy="247.178" r="2.67835" fill="#7CB9D0"/>
<circle cx="928.434" cy="296.022" r="2.67835" fill="#7CB9D0"/>
<circle cx="928.434" cy="344.866" r="2.67835" fill="#C3EAF8"/>
<circle cx="1005.35" cy="2.87757" r="2.67835" fill="#C3EAF8"/>
<circle cx="1005.5" cy="51.8033" r="2.67835" fill="#7CB9D0"/>
<circle cx="1005.5" cy="100.651" r="2.67835" fill="#C3EAF8"/>
<circle cx="1005.5" cy="149.495" r="2.67835" fill="#7CB9D0"/>
<circle cx="1005.5" cy="198.335" r="2.67835" fill="#7CB9D0"/>
<circle cx="1005.5" cy="247.178" r="2.67835" fill="#C3EAF8"/>
<circle cx="1005.5" cy="296.022" r="2.67835" fill="#7CB9D0"/>
<circle cx="1005.5" cy="344.866" r="2.67835" fill="#C3EAF8"/>
<circle cx="1082.57" cy="3.9791" r="2.90488" fill="#C2EBFA"/>
<circle cx="1082.57" cy="52.0221" r="2.90488" fill="#7CB9D0"/>
<circle cx="1082.57" cy="100.866" r="2.90488" fill="#C2EBFA"/>
<circle cx="1082.57" cy="149.71" r="2.90488" fill="#C2EBFA"/>
<circle cx="1082.57" cy="198.553" r="2.90488" fill="#C2EBFA"/>
<circle cx="1082.57" cy="247.397" r="2.90488" fill="#C2EBFA"/>
<circle cx="1082.57" cy="296.233" r="2.90488" fill="#7CB9D0"/>
<circle cx="1082.57" cy="345.077" r="2.90488" fill="#C2EBFA"/>
<circle cx="1159.48" cy="2.87757" r="2.67835" fill="#7CB9D0"/>
<circle cx="1159.63" cy="51.8033" r="2.67835" fill="#7CB9D0"/>
<circle cx="1159.63" cy="100.651" r="2.67835" fill="#7CB9D0"/>
<circle cx="1159.63" cy="149.495" r="2.67835" fill="#7CB9D0"/>
<circle cx="1159.63" cy="198.335" r="2.67835" fill="#7CB9D0"/>
<circle cx="1159.63" cy="247.178" r="2.67835" fill="#7CB9D0"/>
<circle cx="1159.63" cy="296.022" r="2.67835" fill="#7CB9D0"/>
<circle cx="1159.63" cy="344.866" r="2.67835" fill="#C2EBFA"/>
<circle cx="1236.55" cy="2.87757" r="2.67835" fill="#C2EBFA"/>
<circle cx="1236.7" cy="51.8033" r="2.67835" fill="#7CB9D0"/>
<circle cx="1236.7" cy="100.651" r="2.67835" fill="#C2EBFA"/>
<circle cx="1236.7" cy="149.495" r="2.67835" fill="#7CB9D0"/>
<circle cx="1236.7" cy="198.335" r="2.67835" fill="#C2EBFA"/>
<circle cx="1236.7" cy="247.178" r="2.67835" fill="#7CB9D0"/>
<circle cx="1236.7" cy="296.022" r="2.67835" fill="#7CB9D0"/>
<circle cx="1236.7" cy="344.866" r="2.67835" fill="#C2EBFA"/>
<circle cx="1313.61" cy="2.87757" r="2.67835" fill="#C2EBFA"/>
<circle cx="1313.77" cy="51.8033" r="2.67835" fill="#7CB9D0"/>
<circle cx="1313.77" cy="100.651" r="2.67835" fill="#C2EBFA"/>
<circle cx="1313.77" cy="149.495" r="2.67835" fill="#7CB9D0"/>
<circle cx="1313.77" cy="198.335" r="2.67835" fill="#C2EBFA"/>
<circle cx="1313.77" cy="247.178" r="2.67835" fill="#7CB9D0"/>
<circle cx="1313.77" cy="296.022" r="2.67835" fill="#7CB9D0"/>
<circle cx="1313.77" cy="344.866" r="2.67835" fill="#C2EBFA"/>
</g>
</svg>
