<svg width="17" height="71" viewBox="0 0 17 71" fill="none" xmlns="http://www.w3.org/2000/svg">
<g opacity="0.9">
<path d="M8.85493 5.86374L16.7109 1.70468L15.8912 0.15625L8.85493 3.88131L1.81869 0.15625L0.998912 1.70468L8.85493 5.86374Z" fill="#009BD6"/>
<path d="M8.31196 61.1294L16.168 56.9703L15.3482 55.4219L8.31196 59.1469L1.27572 55.4219L0.455943 56.9703L8.31196 61.1294Z" fill="#009BD6"/>
<path d="M8.76118 15.0786L16.6172 10.9195L15.7974 9.37109L8.76118 13.0962L1.72494 9.37109L0.905162 10.9195L8.76118 15.0786Z" fill="#009BD6"/>
<path d="M8.21821 70.3403L16.0742 66.1812L15.2545 64.6328L8.21821 68.3579L1.18197 64.6328L0.362193 66.1812L8.21821 70.3403Z" fill="#009BD6"/>
<path d="M8.67525 24.2856L16.5312 20.1266L15.7115 18.5781L8.67525 22.3032L1.639 18.5781L0.819224 20.1266L8.67525 24.2856Z" fill="#009BD6"/>
<path d="M8.5854 33.5005L16.4414 29.3414L15.6216 27.793L8.5854 31.518L1.54915 27.793L0.729381 29.3414L8.5854 33.5005Z" fill="#009BD6"/>
</g>
</svg>
